<?xml version="1.0" encoding="UTF-8"?>
<svg xmlns="http://www.w3.org/2000/svg" xmlns:xlink="http://www.w3.org/1999/xlink" viewBox="0 0 1931.02 1080">
  <defs>
    <style>
      .cls-1 {
        fill: #b70000;
      }

      .cls-2 {
        fill: #bb1900;
      }

      .cls-3 {
        opacity: .14;
      }

      .cls-3, .cls-4 {
        fill: red;
      }

      .cls-5 {
        fill: #0062ba;
      }

      .cls-6 {
        fill: #0092ff;
      }

      .cls-7 {
        fill: #0086ff;
      }
    </style>
  </defs>
  <g id="Layer_1" data-name="Layer 1">
    <image width="1920" height="1080" xlink:href="Bar.png"/>
  </g>
  <g id="Wall">
    <path class="cls-3" d="M0,593.7l464.41,40.27s345.67,17.69,460.99,17.04c198.71-1.13,414.13-5.02,564.04-9.76,98.74-3.12,441.57-25.86,441.57-25.86l-11.02,68.14-146.95,10.84,40.27,385.64H0l23.4-413.34-23.4-3.27v-69.69"/>
  </g>
  <g id="L3">
    <path class="cls-4" d="M418.81,36.86s-44.74,128.02-113.57,223.7c-67.01,93.15-234.71,185.84-234.71,185.84,0,0,139.73-59.88,220.26-66.77,7.54-.64,29.99,2.36,29.99,2.36l77.79-70.96s-3.2-74.21-2.47-100.73c1.18-42.87,22.71-173.45,22.71-173.45Z"/>
  </g>
  <g id="L1">
    <path class="cls-4" d="M486.09,140.96s50.07,100.66,46.98,172.59c-1.68,38.96-18.58,154.87-18.58,154.87,0,0,56.23-39.82,115.64-44.57,51.62-4.13,87.76,14.45,87.76,14.45,0,0,27.88-70.21,23.06-154.35-2.07-36.07-29.1-108.06-29.1-108.06,0,0-39.9,23.4-80.68,21.85-79.02-3-145.06-56.79-145.06-56.79Z"/>
  </g>
  <g id="L2">
    <path class="cls-7" d="M585.65,34.67c.64-2.62-3.05-3.91-4.2-1.47-13.99,29.88-34.61,71-68.72,128.53-36.97,62.35-87.9,122.77-116.64,151.83-53.61,54.22-106.79,92.78-176.38,140.24-61.38,41.86-136.91,76.19-159.72,87.83-1.27.65-.54,2.57.84,2.21,41.79-10.83,193.31-48.46,282.82-48.95,148.63-.82,217.63,71.97,217.63,71.97,0,0-13.07-47.09-21.51-101.18-8.14-52.17-11.66-110.85-10.84-139.73,1.07-37.7,14.64-115.96,29.94-184.98,9.54-43.05,20.95-82.52,26.76-106.3Z"/>
  </g>
  <g id="R_1">
    <path class="cls-2" d="M1211.05,225.45c53-1.38,80.83-16.78,88.57-18.91,28.43-7.83,64.92-30.64,64.92-30.64,0,0-62.64,108.06-58.51,154.87,3.69,41.87-2.75,127.34-2.75,127.34,0,0-57.32-27.62-98.43-31.66-41.99-4.13-74.03,4.71-74.03,4.71,0,0-19.58-52.21-21.31-112.78-.35-54.38,15.69-109.83,15.69-109.83,0,0,50.95,17.81,85.85,16.9Z"/>
  </g>
  <g id="Center">
    <path class="cls-6" d="M656.97,56.82s80.56,150.77,83.97,227.14c6.88,154.18-83.97,269.82-83.97,269.82,0,0,114.95-81.91,266.37-77.78,167.91,4.58,270.5,94.3,270.5,94.3,0,0-74.9-130.02-83.28-226.45-3.82-43.93,3.29-90.43,14.21-132.42,20.56-79.08,54.62-142.21,54.62-142.21,0,0-71.24,87.77-238.5,86.74-165.87-1.44-283.92-99.12-283.92-99.12Z"/>
  </g>
  <g id="R3">
    <path class="cls-1" d="M1433.37,73.34s28.56,106.17,27.88,181.2c-.39,41.99-12.63,84.58-12.63,84.58l38.16,33.5s10.81-6.46,60.68-1.93c79.5,7.23,251.92,96.02,251.92,96.02,0,0-188.42-133.7-241.08-194.1-18.49-21.21-56.32-58.83-76.92-101.7-26.24-54.62-48.01-97.57-48.01-97.57Z"/>
  </g>
  <g id="R2">
    <path class="cls-5" d="M1238.76,56.82s61.43,185.84,68.4,301.49c4.4,72.93-22.46,218.18-22.46,218.18,0,0,19.71-24.24,51.62-43.71,24.18-14.75,56.05-25.82,87.7-26.89,25.26-.85,91.49-4.23,164.22,11.92,102.1,22.67,243.66,62.12,243.66,62.12,0,0-102.53-47.16-202.36-107.55-64.59-39.07-124.3-84.46-162.52-119.5-40.84-37.45-102.48-92.15-155.48-168.04-45.1-64.57-72.79-128.02-72.79-128.02Z"/>
  </g>
</svg>